<svg width="50" height="50" viewBox="0 0 50 50" fill="none" xmlns="http://www.w3.org/2000/svg">
<path d="M25.0873 49.9998C38.8943 49.9516 50.048 38.7198 49.9998 24.9127C49.9517 11.1057 38.7198 -0.0480437 24.9127 0.000155628C11.1057 0.048355 -0.0480367 11.2802 0.000155583 25.0873C0.0483479 38.8943 11.2802 50.048 25.0873 49.9998Z" fill="#E2E4E7"/>
<path fill-rule="evenodd" clip-rule="evenodd" d="M24.6235 39.0005C24.6933 38.9969 24.764 38.9923 24.8338 38.9864L24.6235 39.0005ZM30.0073 35.4991L30.0502 35.4133C30.1743 35.5219 30.2997 35.6287 30.4275 35.7309L30.4243 35.7423C35.0171 39.3359 38.8522 37.5968 41.66 41.96C41.8725 42.2898 42.071 42.6302 42.253 42.9773C38.1743 46.9131 32.816 49.4067 27.0193 49.9031H22.7413C16.9414 49.4067 11.569 46.9072 7.48164 42.9504C7.73253 42.4828 8.01445 42.0293 8.32694 41.5937C10.9814 37.8919 14.536 38.9344 18.4459 35.7359L18.4445 35.7309C18.5057 35.682 18.5663 35.6323 18.6261 35.5812L18.6307 35.5913C18.9212 35.2432 19.1347 34.8321 19.2538 34.3869L19.2857 32.974C18.341 32.0054 17.7365 31.1879 17.4706 30.5205C17.2425 29.3713 17.1517 28.1992 17.1992 27.0291C16.373 26.7613 15.743 26.087 15.5309 25.2444C15.3608 24.93 15.244 24.5911 15.1824 24.2425C14.958 22.9569 14.208 22.3009 14.5223 21.1124C14.5219 20.8802 14.6724 20.674 14.8941 20.6033C15.1144 20.5331 15.3968 20.6731 15.6545 20.8775C15.3124 19.8989 15.2162 14.2328 15.3754 13.392C15.3649 11.5352 16.5952 9.89965 18.3825 9.39599C19.2159 8.98084 20.1557 8.82618 21.0785 8.94981C22.2349 5.77001 26.8423 7.10215 29.1287 8.07662C31.213 8.69206 33.0774 9.81662 33.6513 11.954C33.9957 13.2364 34.0555 14.5813 33.8228 15.8943C33.5149 17.4942 33.3575 19.1197 33.3543 20.7498C33.5582 20.6206 33.7658 20.5486 33.9364 20.6033C34.1576 20.674 34.3082 20.8798 34.3082 21.1124C34.6229 22.3009 33.8725 22.9569 33.6476 24.2425C33.5865 24.5911 33.4697 24.93 33.2991 25.2444C33.0874 26.087 32.457 26.7613 31.6309 27.0291C31.6783 28.1997 31.5871 29.3717 31.3594 30.5205C31.0944 31.1874 30.49 32.0054 29.5457 32.974L29.5771 34.3869C29.6588 34.7806 29.8043 35.156 30.0059 35.4987L30.0073 35.4991ZM18.8743 36.0128L18.8752 36.0142L18.8765 36.0155L18.8743 36.0128Z" fill="#525D73"/>
</svg>
