<svg width="48" height="48" viewBox="0 0 48 48" fill="none" xmlns="http://www.w3.org/2000/svg">
<rect width="48" height="48" rx="16" fill="white"/>
<rect x="0.5" y="0.5" width="47" height="47" rx="15.5" stroke="black" stroke-opacity="0.08"/>
<path fill-rule="evenodd" clip-rule="evenodd" d="M21.8845 32.106C22.4025 32.683 23.0675 33 23.7575 33H23.7585C24.4515 33 25.1195 32.683 25.6385 32.105C25.9165 31.798 26.3905 31.773 26.6975 32.05C27.0055 32.327 27.0305 32.802 26.7535 33.109C25.9455 34.006 24.8825 34.5 23.7585 34.5H23.7565C22.6355 34.499 21.5745 34.005 20.7695 33.108C20.4925 32.801 20.5175 32.326 20.8255 32.05C21.1335 31.772 21.6075 31.797 21.8845 32.106ZM23.8073 13C28.2523 13 31.2383 16.462 31.2383 19.695C31.2383 21.358 31.6613 22.063 32.1103 22.811C32.5543 23.549 33.0573 24.387 33.0573 25.971C32.7083 30.018 28.4833 30.348 23.8073 30.348C19.1313 30.348 14.9053 30.018 14.5603 26.035C14.5573 24.387 15.0603 23.549 15.5043 22.811L15.6611 22.5472C16.047 21.8839 16.3763 21.1624 16.3763 19.695C16.3763 16.462 19.3623 13 23.8073 13ZM23.8073 14.5C20.3123 14.5 17.8763 17.238 17.8763 19.695C17.8763 21.774 17.2993 22.735 16.7893 23.583C16.3803 24.264 16.0573 24.802 16.0573 25.971C16.2243 27.857 17.4693 28.848 23.8073 28.848C30.1103 28.848 31.3943 27.813 31.5603 25.906C31.5573 24.802 31.2343 24.264 30.8253 23.583C30.3153 22.735 29.7383 21.774 29.7383 19.695C29.7383 17.238 27.3023 14.5 23.8073 14.5Z" fill="#465061"/>
<circle cx="30.0571" cy="16" r="3.5" fill="#F74A4A" stroke="#FEFEFE"/>
</svg>
